<?xml version="1.0" encoding="UTF-8" standalone="no"?>
<svg width="263px" height="262px" viewBox="0 0 263 262" version="1.1" xmlns="http://www.w3.org/2000/svg" xmlns:xlink="http://www.w3.org/1999/xlink">
    <!-- Generator: Sketch 3.8.3 (29802) - http://www.bohemiancoding.com/sketch -->
    <title>Digital Library</title>
    <desc>Created with Sketch.</desc>
    <defs>
        <polygon id="path-1" points="0 348 415.889811 348 415.889811 0 0 0"></polygon>
        <polygon id="path-3" points="0 348 415.889811 348 415.889811 0 0 0"></polygon>
    </defs>
    <g id="Course-Library" stroke="none" stroke-width="1" fill="none" fill-rule="evenodd">
        <g id="Ryan-Sandbox" transform="translate(-662.000000, -1059.000000)">
            <g id="Digital-Library" transform="translate(619.000000, 1025.000000)">
                <g id="Group-6" transform="translate(43.587594, 34.800000)" fill="#FFB74D">
                    <path d="M261.525566,130.5 C261.525566,202.573062 202.980976,261 130.762783,261 C58.5445901,261 0,202.573062 0,130.5 C0,58.426764 58.5445901,0 130.762783,0 C202.980976,0 261.525566,58.426764 261.525566,130.5" id="Fill-2"></path>
                </g>
                <g id="Group-14">
                    <path d="M207.580478,238.798348 C207.573853,238.9024 207.569494,238.986268 207.571586,239.045776 C207.573853,239.140954 207.556069,239.271106 207.396713,239.436928 C206.683968,240.163552 204.227197,240.614038 200.982014,240.614038 C200.521729,240.614038 200.231784,240.605338 200.229518,240.605338 L148.220103,240.605338 L148.209119,240.605338 C148.206852,240.605338 147.916907,240.614038 147.454356,240.614038 C144.211613,240.614038 141.754668,240.163552 141.041923,239.436928 C140.882567,239.271106 140.864958,239.140954 140.86705,239.045776 C140.869316,238.986268 140.864958,238.9024 140.858332,238.798348 C140.853799,238.716742 140.847174,238.617214 140.847174,238.51351 C142.259412,239.120944 144.962017,239.763874 148.246778,239.706454 C154.194218,239.609188 168.043915,239.717242 173.077236,239.761438 L173.077236,239.774662 L174.066674,239.770312 L175.065005,239.774662 L175.065005,239.765788 C180.096059,239.746126 193.932331,239.708542 199.890929,239.836606 C200.063536,239.840956 200.231784,239.843392 200.399858,239.843392 C203.698044,239.840956 206.34538,239.149828 207.591462,238.544482 C207.58937,238.637224 207.584837,238.725616 207.580478,238.798348 L207.580478,238.798348 Z M207.452156,237.596704 L207.24189,237.609928 C207.232998,237.470902 207.279375,237.364936 207.317035,237.30508 C207.370212,237.402346 207.416763,237.499438 207.452156,237.596704 L207.452156,237.596704 Z M207.881581,235.970848 C207.414497,235.480516 206.830074,234.935026 206.157256,234.30532 C204.185005,232.458658 201.482399,229.931482 199.676129,226.781386 C197.577823,223.123384 197.460485,217.08193 197.480361,215.177848 C197.482627,214.81123 197.491519,214.5946 197.493611,214.581376 L197.520287,213.932008 L150.916082,213.932008 L150.94485,214.581376 C150.947117,214.5946 150.956009,214.81123 150.958101,215.177848 C150.978151,217.079668 150.860813,223.119034 148.762507,226.781386 C146.95397,229.933918 144.251365,232.463008 142.277021,234.307582 C141.604203,234.937114 141.024314,235.480516 140.557229,235.970848 C140.11682,236.430382 139.875519,236.914276 139.742664,237.3625 L139.658627,237.356062 C139.654094,237.41992 139.66072,237.499438 139.682862,237.585742 C139.561165,238.131232 139.589933,238.601902 139.607717,238.880302 C139.612076,238.935286 139.616609,238.979482 139.616609,239.010454 C139.601092,239.487562 139.784683,239.936134 140.143321,240.30484 C141.400562,241.590526 144.813645,241.860052 147.454356,241.860052 C147.892498,241.860052 148.182443,241.851178 148.244512,241.851178 L200.194124,241.851178 C200.256019,241.851178 200.545963,241.860052 200.982014,241.860052 L200.98428,241.860052 C203.624991,241.860052 207.038248,241.590526 208.293222,240.30484 C208.653953,239.936134 208.835452,239.487562 208.822202,239.010454 C208.822202,238.979482 208.82656,238.935286 208.831093,238.880302 C208.866487,238.343338 208.948431,237.090886 207.881581,235.970848 L207.881581,235.970848 Z" id="Fill-7" fill="#E0E0DF"></path>
                    <mask id="mask-2" fill="white">
                        <use xlink:href="#path-1"></use>
                    </mask>
                    <g id="Clip-10"></g>
                    <polygon id="Fill-9" fill="#E1F2F7" mask="url(#mask-2)" points="70.3250964 186.423252 278.375658 186.423252 278.375658 71.357226 70.3250964 71.357226"></polygon>
                    <path d="M199.890842,239.836571 C193.932243,239.708507 180.096146,239.746265 175.064917,239.765927 L175.064917,239.774801 L174.066761,239.770277 L173.077323,239.774801 L173.077323,239.761403 C168.044002,239.717207 154.194131,239.609153 148.246691,239.706419 C144.96193,239.763839 142.259325,239.120909 140.847261,238.513475 C140.847261,238.617179 140.853886,238.716707 140.858245,238.798313 C140.86487,238.902365 140.869404,238.986233 140.867137,239.045741 C140.86487,239.140919 140.882654,239.271071 141.04201,239.436893 C141.754755,240.163517 144.211526,240.614177 147.454269,240.614177 C147.91682,240.614177 148.206939,240.605303 148.209031,240.605303 L148.22019,240.605303 L200.22943,240.605303 C200.231697,240.605303 200.521642,240.614177 200.982101,240.614177 C204.22711,240.614177 206.684056,240.163517 207.3968,239.436893 C207.556156,239.271071 207.573766,239.140919 207.571673,239.045741 C207.569407,238.986233 207.573766,238.902365 207.580391,238.798313 C207.584924,238.725581 207.589283,238.637189 207.591549,238.544447 C206.345467,239.149793 203.698131,239.840921 200.399945,239.843357 C200.231697,239.843357 200.063449,239.840921 199.890842,239.836571" id="Fill-11" fill="#F4F5F5" mask="url(#mask-2)"></path>
                    <path d="M286.427525,196.167322 L62.2743108,196.167322 L61.0226495,196.167322 L61.0226495,208.79833 C61.0226495,213.925588 62.2687316,215.177866 67.3730132,215.177866 L280.612765,215.177866 C285.300872,215.177866 287.67814,214.19059 287.67814,208.79833 L287.67814,196.167322 L286.427525,196.167322 Z" id="Fill-12" fill="#F4F5F5" mask="url(#mask-2)"></path>
                    <path d="M70.5636077,186.423426 L278.614169,186.423426 L278.614169,71.3574 L70.5636077,71.3574 L70.5636077,186.423426 Z M280.612922,60.9 L67.3729958,60.9 C62.2687142,60.9 61.022632,62.152452 61.022632,67.279536 L61.022632,196.167252 L62.2742934,196.167252 L286.427507,196.167252 L287.678122,196.167252 L287.678122,67.279536 C287.678122,61.88745 285.300855,60.9 280.612922,60.9 L280.612922,60.9 Z" id="Fill-13" fill="#424242" mask="url(#mask-2)"></path>
                </g>
                <polygon id="Fill-15" fill="#00BCD4" points="75.2775189 182.6826 100.27605 182.6826 100.27605 78.2826 75.2775189 78.2826"></polygon>
                <polygon id="Fill-16" fill="#FF9800" points="102.055993 182.75742 121.234535 182.75742 121.234535 87.05742 102.055993 87.05742"></polygon>
                <polygon id="Fill-17" fill="#AED035" points="121.139287 82.7540694 129.952699 183.289877 147.865805 181.725965 139.052394 81.1899834"></polygon>
                <polygon id="Fill-18" fill="#00BCD4" points="96.109425 182.6826 100.27605 182.6826 100.27605 78.2826 96.109425 78.2826"></polygon>
                <polygon id="Fill-19" fill="#F44336" points="117.435963 182.75742 121.23436 182.75742 121.23436 87.05742 117.435963 87.05742"></polygon>
                <polygon id="Fill-20" fill="#AFD135" points="134.900972 81.5524776 143.714383 182.08846 147.86584 181.726018 139.052428 81.1900356"></polygon>
                <polygon id="Fill-21" fill="#AFD135" points="126.238774 92.5264488 133.274509 172.782731 141.335599 172.078901 134.299864 91.8226188"></polygon>
                <polygon id="Fill-22" fill="#00BCD4" points="80.0714568 91.071774 98.1925633 91.071774 98.1925633 84.198774 80.0714568 84.198774"></polygon>
                <polygon id="Fill-23" fill="#F44336" points="105.946971 98.339058 116.407993 98.339058 116.407993 95.729058 105.946971 95.729058"></polygon>
                <polygon id="Fill-24" fill="#F44336" points="106.993073 102.341058 115.710592 102.341058 115.710592 99.731058 106.993073 99.731058"></polygon>
                <polygon id="Fill-25" fill="#00BCD4" points="80.0714568 175.505274 98.1925633 175.505274 98.1925633 172.025274 80.0714568 172.025274"></polygon>
                <polygon id="Fill-26" fill="#FF9800" points="139.904339 88.2282834 156.555846 182.474339 175.443223 179.150765 158.791541 84.9047094"></polygon>
                <polygon id="Fill-27" fill="#FF9800" points="155.050784 85.5628818 171.702466 179.808938 175.443153 179.150696 158.791472 84.9046398"></polygon>
                <polygon id="Fill-28" fill="#FF9800" points="157.71831 96.5491026 145.012526 98.7850026 144.558344 96.2146746 157.264302 93.9787746"></polygon>
                <polygon id="Fill-29" fill="#FF9800" points="171.145137 172.543011 158.439179 174.778911 145.678475 102.554817 158.384433 100.318917"></polygon>
                <g id="Group-68">
                    <path id="Fill-30" fill="#C9D0D4"></path>
                    <path id="Fill-32" fill="#C9D0D4"></path>
                    <path id="Fill-34" fill="#C9D0D4"></path>
                    <path id="Fill-36" fill="#C9D0D4"></path>
                    <path d="M259.467139,87.0017577 L259.465686,87.0004872 C259.472771,87.0010317 259.4804,87.0013947 259.467139,87.0017577 M259.465686,173.998959 L259.467139,173.998051 C259.4804,173.998596 259.472771,173.998596 259.465686,173.998959 M259.464814,86.9999652 L191.785485,86.9999652 L191.785485,134.323615 L191.785485,168.305293 L191.785485,173.999965 L259.464814,173.999965 C261.434799,173.999965 263.110655,172.406125 263.110655,170.440621 L263.110655,170.045467 L263.110655,168.305293 L263.110655,134.323615 L263.110655,90.9544632 L263.110655,90.5589612 C263.110655,88.5932832 261.434799,86.9999652 259.464814,86.9999652" id="Fill-38" fill="#009688"></path>
                    <path d="M257.962822,88.5837384 L257.961914,88.5822864 C257.968999,88.5828309 257.976083,88.5831939 257.962822,88.5837384 M257.961914,172.417445 L257.962822,172.416356 C257.976083,172.416356 257.968999,172.416719 257.961914,172.417445 M257.961042,88.5814164 L191.785485,88.5814164 L191.785485,134.184728 L191.785485,166.930484 L191.785485,172.418444 L257.961042,172.418444 C259.886742,172.418444 261.525636,170.882198 261.525636,168.988382 L261.525636,168.607496 L261.525636,166.930484 L261.525636,134.184728 L261.525636,92.3925384 L261.525636,92.0113044 C261.525636,90.1171404 259.886742,88.5814164 257.961042,88.5814164" id="Fill-40" fill="#CFD8DB"></path>
                    <path id="Fill-42" fill="#C9D0D4"></path>
                    <path d="M257.421358,89.1537546 C258.236969,89.8546266 258.752,90.8761806 258.752,92.0113566 L258.752,168.988261 C258.752,170.123785 258.236969,171.144643 257.421358,171.845689 C258.64338,171.421999 259.544074,170.284213 259.544074,168.988261 L259.544074,92.0113566 C259.544074,90.7154046 258.64338,89.5779666 257.421358,89.1537546 L257.421358,89.1537546 Z M255.467588,172.873333 L255.518672,172.813651 L253.047604,172.813651 L254.791108,172.022473 C256.508808,172.022473 257.959403,170.633083 257.959403,168.988261 L257.959403,92.0113566 C257.959403,90.3665346 256.508808,88.9769706 254.791108,88.9769706 L251.086163,88.1861406 L255.516406,88.1861406 L255.482407,88.1461206 L256.376302,88.1861406 C256.507936,88.1861406 256.637653,88.1924046 256.766149,88.2044106 L256.778528,88.2058026 C258.774491,88.4012046 260.337194,90.0333246 260.337194,92.0113566 L260.337194,168.988261 C260.337194,171.096967 258.561261,172.812607 256.378568,172.813651 L255.467588,172.873333 Z" id="Fill-44" fill="#BDBCBC"></path>
                    <path id="Fill-46" fill="#C9D0D4"></path>
                    <path d="M254.251372,89.1537546 C255.066983,89.8546266 255.582014,90.8761806 255.582014,92.0113566 L255.582014,168.988261 C255.582014,170.123785 255.066983,171.144643 254.251372,171.845689 C255.473568,171.421999 256.374262,170.284213 256.374262,168.988261 L256.374262,92.0113566 C256.374262,90.7154046 255.473568,89.5779666 254.251372,89.1537546 L254.251372,89.1537546 Z M250.554098,172.873333 L252.348686,172.813651 L250.749544,172.813651 L251.621296,172.022473 C253.338473,172.022473 254.789068,170.633083 254.789068,168.988261 L254.789068,92.0113566 C254.789068,90.3665346 253.338473,88.9769706 251.621296,88.9769706 L250.09573,88.1861406 L252.346594,88.1861406 L252.312595,88.1461206 L253.20649,88.1861406 C253.337601,88.1861406 253.467841,88.1924046 253.596337,88.2044106 L253.608542,88.2058026 C255.604156,88.4012046 257.166859,90.0333246 257.166859,92.0113566 L257.166859,168.988261 C257.166859,171.096967 255.391274,172.812607 253.208233,172.813651 L250.554098,172.873333 Z" id="Fill-48" fill="#BDBCBC"></path>
                    <path id="Fill-50" fill="#C9D0D4"></path>
                    <path id="Fill-52" fill="#C9D0D4"></path>
                    <path d="M192.181626,172.022455 L249.853418,172.022455 L249.8583,172.017409 L250.096114,172.022107 C251.787313,171.990091 253.204258,170.613925 253.204258,168.988243 L253.204258,92.0113392 C253.204258,90.3882672 251.791148,89.0134932 250.103437,88.9778232 L249.8583,88.9821732 L249.853418,88.9769532 L192.181626,88.9769532 L192.181626,172.022455 Z M249.127249,172.873489 L249.178334,172.813633 L192.042843,172.813633 L192.042843,88.1862972 L249.17659,88.1862972 L249.142243,88.1461032 L250.036137,88.1862972 C250.167598,88.1862972 250.297837,88.1923872 250.426334,88.2043932 L250.438364,88.2057852 C252.434327,88.4011872 253.996855,90.0333072 253.996855,92.0113392 L253.996855,168.988243 C253.996855,171.097123 252.221445,172.812589 250.03823,172.813633 L249.127249,172.873489 Z" id="Fill-54" fill="#BDBCBC"></path>
                    <path d="M248.055192,87.0017577 L248.053739,87.0004872 C248.060824,87.0010317 248.068453,87.0013947 248.055192,87.0017577 M248.053739,173.998959 L248.055192,173.998051 C248.068453,173.998596 248.060824,173.998596 248.053739,173.998959 M248.052867,86.9999652 L222.692907,86.9999652 L191.785467,86.9999652 L191.785467,134.323615 L191.785467,168.305293 L191.785467,173.999965 L222.692907,173.999965 L248.052867,173.999965 C250.022852,173.999965 251.698359,172.406125 251.698359,170.440621 L251.698359,170.045467 L251.698359,168.305293 L251.698359,134.323615 L251.698359,90.9544632 L251.698359,90.5589612 C251.698359,88.5932832 250.022852,86.9999652 248.052867,86.9999652" id="Fill-56" fill="#009688"></path>
                    <mask id="mask-4" fill="white">
                        <use xlink:href="#path-3"></use>
                    </mask>
                    <g id="Clip-59"></g>
                    <polygon id="Fill-58" fill="#009688" mask="url(#mask-4)" points="210.954018 98.03856 232.747816 98.03856 232.747816 96.95106 210.954018 96.95106"></polygon>
                    <polygon id="Fill-60" fill="#009688" mask="url(#mask-4)" points="208.774639 100.86606 234.927195 100.86606 234.927195 99.77856 208.774639 99.77856"></polygon>
                    <polygon id="Fill-61" fill="#009688" mask="url(#mask-4)" points="195.886572 87 191.785502 87 191.785502 134.32365 191.785502 168.305154 191.785502 174 195.886572 174"></polygon>
                    <polygon id="Fill-62" fill="#009688" mask="url(#mask-4)" points="240.273545 155.13238 236.205079 158.467438 236.132549 161.838862 231.77379 160.171246 227.923436 161.911246 227.887346 160.425112 221.966581 157.815112 217.081807 160.678108 217.063151 161.890888 214.62922 160.860112 212.44984 161.87488 212.44984 158.61238 206.892422 155.13238 201.335004 158.61238 201.335004 167.74738 244.268784 167.74738 244.268784 158.61238"></polygon>
                    <polygon id="Fill-63" fill="#009688" mask="url(#mask-4)" points="205.287631 110.32731 240.157707 110.32731 240.157707 108.15231 205.287631 108.15231"></polygon>
                    <polygon id="Fill-64" fill="#009688" mask="url(#mask-4)" points="205.287631 114.67731 240.157707 114.67731 240.157707 112.50231 205.287631 112.50231"></polygon>
                </g>
            </g>
        </g>
    </g>
</svg>